<svg version="1.1" id="Layer_1" xmlns="http://www.w3.org/2000/svg" xmlns:xlink="http://www.w3.org/1999/xlink" x="0px" y="0px"
	 width="100%" viewBox="0 0 281 279" enable-background="new 0 0 281 279" xml:space="preserve">
<path fill="#120905" opacity="1.000000" stroke="none" 
	d="
M131.000000,1.000000 
	C140.687561,1.000000 150.375122,1.000000 160.783997,1.306766 
	C175.430450,3.385500 188.644272,7.703682 200.992584,14.142631 
	C218.623245,23.336021 233.964874,35.523399 246.638489,51.047764 
	C262.738892,70.769745 273.708435,92.872849 279.044495,117.780464 
	C279.853790,121.557991 281.006287,125.261986 282.000000,129.000000 
	C282.000000,129.750000 282.000000,130.500000 281.690430,131.914246 
	C281.587219,138.385666 281.793610,144.192841 282.000000,150.000000 
	C282.000000,152.700012 282.000000,155.400024 281.665985,158.689819 
	C280.555359,160.235596 279.353973,161.079117 279.066467,162.164673 
	C275.311096,176.344330 266.766663,186.606125 254.436157,194.408081 
	C237.576202,205.075974 223.037354,218.376053 211.497360,234.825104 
	C203.690689,245.952713 195.214310,256.419006 184.553375,265.158997 
	C173.686203,274.068115 161.425903,278.205505 147.706467,279.002319 
	C127.371536,280.183319 107.871239,276.632599 88.961426,269.133698 
	C68.540024,261.035370 50.440289,249.694153 35.635944,233.224930 
	C18.670897,214.351990 9.219358,191.970871 3.879888,167.521927 
	C3.244053,164.610489 1.975350,161.837280 1.000000,159.000000 
	C1.000000,145.312439 1.000000,131.624878 1.308678,117.258163 
	C2.040076,115.682327 2.670563,114.826347 2.855441,113.883041 
	C9.157342,81.728668 25.689701,55.801308 50.582752,34.844288 
	C67.447655,20.646025 86.567398,11.019379 107.959213,5.903072 
	C115.593651,4.077133 123.317154,2.623548 131.000000,1.000000 
z"/>
<path fill="#47704C" opacity="1.000000" stroke="none" 
	d="
M1.000000,159.468658 
	C1.975350,161.837280 3.244053,164.610489 3.879888,167.521927 
	C9.219358,191.970871 18.670897,214.351990 35.635944,233.224930 
	C50.440289,249.694153 68.540024,261.035370 88.961426,269.133698 
	C107.871239,276.632599 127.371536,280.183319 147.706467,279.002319 
	C161.425903,278.205505 173.686203,274.068115 184.553375,265.158997 
	C195.214310,256.419006 203.690689,245.952713 211.497360,234.825104 
	C223.037354,218.376053 237.576202,205.075974 254.436157,194.408081 
	C266.766663,186.606125 275.311096,176.344330 279.066467,162.164673 
	C279.353973,161.079117 280.555359,160.235596 281.665985,159.139801 
	C282.000000,164.022095 282.000000,169.044189 281.663818,174.626038 
	C279.951599,176.314438 278.075378,177.168900 277.281708,178.616760 
	C272.548981,187.250366 265.187347,193.095917 257.124847,198.240738 
	C238.631149,210.041870 223.568893,225.365112 211.167511,243.334106 
	C203.915970,253.841278 195.453018,263.096466 185.150406,270.660126 
	C183.751602,271.687073 182.539993,272.968994 181.241714,274.132843 
	C181.378571,274.755219 181.515442,275.377625 181.652298,276.000000 
	C215.101532,276.000000 248.550766,276.000000 282.000000,276.000000 
	C282.000000,277.331909 282.000000,278.663788 282.000000,279.996765 
	C188.435760,279.997864 94.871521,279.997864 1.000000,279.997864 
	C1.000000,239.979630 1.000000,199.958481 1.000000,159.468658 
z"/>
<path fill="#47704C" opacity="1.000000" stroke="none" 
	d="
M282.000000,275.531342 
	C248.550766,276.000000 215.101532,276.000000 181.652298,276.000000 
	C181.515442,275.377625 181.378571,274.755219 181.241714,274.132843 
	C182.539993,272.968994 183.751602,271.687073 185.150406,270.660126 
	C195.453018,263.096466 203.915970,253.841278 211.167511,243.334106 
	C223.568893,225.365112 238.631149,210.041870 257.124847,198.240738 
	C265.187347,193.095917 272.548981,187.250366 277.281708,178.616760 
	C278.075378,177.168900 279.951599,176.314438 281.663818,175.092896 
	C282.000000,208.354233 282.000000,241.708450 282.000000,275.531342 
z"/>
<path fill="#47704C" opacity="1.000000" stroke="none" 
	d="
M282.000000,128.531342 
	C281.006287,125.261986 279.853790,121.557991 279.044495,117.780464 
	C273.708435,92.872849 262.738892,70.769745 246.638489,51.047764 
	C233.964874,35.523399 218.623245,23.336021 200.992584,14.142631 
	C188.644272,7.703682 175.430450,3.385500 161.252655,1.306766 
	C201.262344,1.000000 241.524704,1.000000 282.000000,1.000000 
	C282.000000,43.353989 282.000000,85.708336 282.000000,128.531342 
z"/>
<path fill="#47704C" opacity="1.000000" stroke="none" 
	d="
M130.531342,1.000000 
	C123.317154,2.623548 115.593651,4.077133 107.959213,5.903072 
	C86.567398,11.019379 67.447655,20.646025 50.582752,34.844288 
	C25.689701,55.801308 9.157342,81.728668 2.855441,113.883041 
	C2.670563,114.826347 2.040076,115.682327 1.308678,116.789505 
	C1.000000,78.402206 1.000000,39.804409 1.000000,1.000000 
	C44.020676,1.000000 87.041679,1.000000 130.531342,1.000000 
z"/>
<path fill="#47704C" opacity="1.000000" stroke="none" 
	d="
M282.000000,149.532059 
	C281.793610,144.192841 281.587219,138.385666 281.690430,132.289246 
	C282.000000,137.688034 282.000000,143.376083 282.000000,149.532059 
z"/>
</svg>